<mxfile host="app.diagrams.net" agent="Mozilla/5.0 (Windows NT 10.0; Win64; x64) AppleWebKit/537.36 (KHTML, like Gecko) Chrome/138.0.0.0 Safari/537.36 Edg/138.0.0.0" version="28.0.5" pages="2">
  <diagram name="Question 1" id="JMISCL6rNqhaSx3jP0tP">
    <mxGraphModel dx="1418" dy="838" grid="1" gridSize="10" guides="1" tooltips="1" connect="1" arrows="1" fold="1" page="1" pageScale="1" pageWidth="850" pageHeight="1100" math="0" shadow="0">
      <root>
        <mxCell id="0" />
        <mxCell id="1" parent="0" />
        <mxCell id="Xc801w4YaEWtKi9-rcJZ-37" style="edgeStyle=none;curved=1;rounded=0;orthogonalLoop=1;jettySize=auto;html=1;fontSize=12;startSize=8;endSize=8;" edge="1" parent="1" source="Xc801w4YaEWtKi9-rcJZ-34" target="Xc801w4YaEWtKi9-rcJZ-33">
          <mxGeometry relative="1" as="geometry" />
        </mxCell>
        <mxCell id="Xc801w4YaEWtKi9-rcJZ-10" value="Customer" style="swimlane;childLayout=stackLayout;horizontal=1;startSize=50;horizontalStack=0;rounded=1;fontSize=14;fontStyle=0;strokeWidth=2;resizeParent=0;resizeLast=1;shadow=0;dashed=0;align=center;arcSize=4;whiteSpace=wrap;html=1;" vertex="1" parent="1">
          <mxGeometry x="30" y="120" width="160" height="120" as="geometry" />
        </mxCell>
        <mxCell id="Xc801w4YaEWtKi9-rcJZ-11" value="CustomerID &amp;lt;PI&amp;gt;&lt;div&gt;CustomerName&lt;/div&gt;&lt;div&gt;CustomerAdress&lt;/div&gt;" style="align=left;strokeColor=none;fillColor=none;spacingLeft=4;spacingRight=4;fontSize=12;verticalAlign=top;resizable=0;rotatable=0;part=1;html=1;whiteSpace=wrap;" vertex="1" parent="Xc801w4YaEWtKi9-rcJZ-10">
          <mxGeometry y="50" width="160" height="70" as="geometry" />
        </mxCell>
        <mxCell id="Xc801w4YaEWtKi9-rcJZ-12" value="Order" style="swimlane;childLayout=stackLayout;horizontal=1;startSize=50;horizontalStack=0;rounded=1;fontSize=14;fontStyle=0;strokeWidth=2;resizeParent=0;resizeLast=1;shadow=0;dashed=0;align=center;arcSize=4;whiteSpace=wrap;html=1;" vertex="1" parent="1">
          <mxGeometry x="460" y="120" width="160" height="120" as="geometry" />
        </mxCell>
        <mxCell id="Xc801w4YaEWtKi9-rcJZ-13" value="OrderID &amp;lt;PI&amp;gt;&lt;div&gt;OrderDate&lt;/div&gt;&lt;div&gt;OrderTime&lt;/div&gt;" style="align=left;strokeColor=none;fillColor=none;spacingLeft=4;spacingRight=4;fontSize=12;verticalAlign=top;resizable=0;rotatable=0;part=1;html=1;whiteSpace=wrap;" vertex="1" parent="Xc801w4YaEWtKi9-rcJZ-12">
          <mxGeometry y="50" width="160" height="70" as="geometry" />
        </mxCell>
        <mxCell id="Xc801w4YaEWtKi9-rcJZ-15" value="Trainer" style="swimlane;childLayout=stackLayout;horizontal=1;startSize=50;horizontalStack=0;rounded=1;fontSize=14;fontStyle=0;strokeWidth=2;resizeParent=0;resizeLast=1;shadow=0;dashed=0;align=center;arcSize=4;whiteSpace=wrap;html=1;" vertex="1" parent="1">
          <mxGeometry x="30" y="280" width="160" height="120" as="geometry" />
        </mxCell>
        <mxCell id="Xc801w4YaEWtKi9-rcJZ-16" value="TrainerID &amp;lt;PI&amp;gt;&lt;div&gt;TrainerPhone&lt;/div&gt;&lt;div&gt;TrainerBackground&lt;/div&gt;" style="align=left;strokeColor=none;fillColor=none;spacingLeft=4;spacingRight=4;fontSize=12;verticalAlign=top;resizable=0;rotatable=0;part=1;html=1;whiteSpace=wrap;" vertex="1" parent="Xc801w4YaEWtKi9-rcJZ-15">
          <mxGeometry y="50" width="160" height="70" as="geometry" />
        </mxCell>
        <mxCell id="Xc801w4YaEWtKi9-rcJZ-17" value="Trainee" style="swimlane;childLayout=stackLayout;horizontal=1;startSize=50;horizontalStack=0;rounded=1;fontSize=14;fontStyle=0;strokeWidth=2;resizeParent=0;resizeLast=1;shadow=0;dashed=0;align=center;arcSize=4;whiteSpace=wrap;html=1;" vertex="1" parent="1">
          <mxGeometry x="460" y="280" width="160" height="120" as="geometry" />
        </mxCell>
        <mxCell id="Xc801w4YaEWtKi9-rcJZ-18" value="TraineeID &amp;lt;PI&amp;gt;&lt;div&gt;TraineeAdress&lt;/div&gt;&lt;div&gt;TraineePhone&lt;/div&gt;" style="align=left;strokeColor=none;fillColor=none;spacingLeft=4;spacingRight=4;fontSize=12;verticalAlign=top;resizable=0;rotatable=0;part=1;html=1;whiteSpace=wrap;" vertex="1" parent="Xc801w4YaEWtKi9-rcJZ-17">
          <mxGeometry y="50" width="160" height="70" as="geometry" />
        </mxCell>
        <mxCell id="Xc801w4YaEWtKi9-rcJZ-26" style="edgeStyle=none;curved=1;rounded=0;orthogonalLoop=1;jettySize=auto;html=1;exitX=1;exitY=0;exitDx=0;exitDy=0;entryX=0;entryY=0;entryDx=0;entryDy=0;fontSize=12;startSize=8;endSize=8;startArrow=ERmandOne;startFill=0;endArrow=ERzeroToMany;endFill=0;" edge="1" parent="1" source="Xc801w4YaEWtKi9-rcJZ-11" target="Xc801w4YaEWtKi9-rcJZ-13">
          <mxGeometry relative="1" as="geometry" />
        </mxCell>
        <mxCell id="Xc801w4YaEWtKi9-rcJZ-27" value="places" style="edgeLabel;html=1;align=center;verticalAlign=middle;resizable=0;points=[];fontSize=12;" vertex="1" connectable="0" parent="Xc801w4YaEWtKi9-rcJZ-26">
          <mxGeometry x="0.0148" y="-1" relative="1" as="geometry">
            <mxPoint as="offset" />
          </mxGeometry>
        </mxCell>
        <mxCell id="Xc801w4YaEWtKi9-rcJZ-28" style="edgeStyle=none;curved=1;rounded=0;orthogonalLoop=1;jettySize=auto;html=1;entryX=0;entryY=0;entryDx=0;entryDy=0;fontSize=12;startSize=8;endSize=8;startArrow=ERoneToMany;startFill=0;endArrow=ERzeroToMany;endFill=0;" edge="1" parent="1" target="Xc801w4YaEWtKi9-rcJZ-18">
          <mxGeometry relative="1" as="geometry">
            <mxPoint x="190" y="330" as="sourcePoint" />
            <mxPoint x="460" y="330" as="targetPoint" />
          </mxGeometry>
        </mxCell>
        <mxCell id="Xc801w4YaEWtKi9-rcJZ-29" value="trains" style="edgeLabel;html=1;align=center;verticalAlign=middle;resizable=0;points=[];fontSize=12;" vertex="1" connectable="0" parent="Xc801w4YaEWtKi9-rcJZ-28">
          <mxGeometry x="0.0148" y="-1" relative="1" as="geometry">
            <mxPoint as="offset" />
          </mxGeometry>
        </mxCell>
        <mxCell id="Xc801w4YaEWtKi9-rcJZ-31" value="Student" style="swimlane;childLayout=stackLayout;horizontal=1;startSize=50;horizontalStack=0;rounded=1;fontSize=14;fontStyle=0;strokeWidth=2;resizeParent=0;resizeLast=1;shadow=0;dashed=0;align=center;arcSize=4;whiteSpace=wrap;html=1;" vertex="1" parent="1">
          <mxGeometry x="30" y="450" width="160" height="120" as="geometry" />
        </mxCell>
        <mxCell id="Xc801w4YaEWtKi9-rcJZ-32" value="StudentID &amp;lt;PI&amp;gt;&lt;div&gt;StudentName&lt;/div&gt;&lt;div&gt;StudentAge&lt;/div&gt;" style="align=left;strokeColor=none;fillColor=none;spacingLeft=4;spacingRight=4;fontSize=12;verticalAlign=top;resizable=0;rotatable=0;part=1;html=1;whiteSpace=wrap;" vertex="1" parent="Xc801w4YaEWtKi9-rcJZ-31">
          <mxGeometry y="50" width="160" height="70" as="geometry" />
        </mxCell>
        <mxCell id="Xc801w4YaEWtKi9-rcJZ-33" value="CampusCard" style="swimlane;childLayout=stackLayout;horizontal=1;startSize=50;horizontalStack=0;rounded=1;fontSize=14;fontStyle=0;strokeWidth=2;resizeParent=0;resizeLast=1;shadow=0;dashed=0;align=center;arcSize=4;whiteSpace=wrap;html=1;" vertex="1" parent="1">
          <mxGeometry x="460" y="450" width="160" height="120" as="geometry" />
        </mxCell>
        <mxCell id="Xc801w4YaEWtKi9-rcJZ-34" value="CampusCardID &amp;lt;PI&amp;gt;&lt;div&gt;CampusCardAttribute&lt;/div&gt;" style="align=left;strokeColor=none;fillColor=none;spacingLeft=4;spacingRight=4;fontSize=12;verticalAlign=top;resizable=0;rotatable=0;part=1;html=1;whiteSpace=wrap;" vertex="1" parent="Xc801w4YaEWtKi9-rcJZ-33">
          <mxGeometry y="50" width="160" height="70" as="geometry" />
        </mxCell>
        <mxCell id="Xc801w4YaEWtKi9-rcJZ-35" style="edgeStyle=none;curved=1;rounded=0;orthogonalLoop=1;jettySize=auto;html=1;entryX=0;entryY=0;entryDx=0;entryDy=0;fontSize=12;startSize=8;endSize=8;startArrow=ERmandOne;startFill=0;endArrow=ERzeroToOne;endFill=0;" edge="1" parent="1" target="Xc801w4YaEWtKi9-rcJZ-34">
          <mxGeometry relative="1" as="geometry">
            <mxPoint x="190" y="500" as="sourcePoint" />
            <mxPoint x="460" y="500" as="targetPoint" />
          </mxGeometry>
        </mxCell>
        <mxCell id="Xc801w4YaEWtKi9-rcJZ-36" value="has" style="edgeLabel;html=1;align=center;verticalAlign=middle;resizable=0;points=[];fontSize=12;" vertex="1" connectable="0" parent="Xc801w4YaEWtKi9-rcJZ-35">
          <mxGeometry x="0.0148" y="-1" relative="1" as="geometry">
            <mxPoint as="offset" />
          </mxGeometry>
        </mxCell>
        <mxCell id="Xc801w4YaEWtKi9-rcJZ-38" value="Teacher" style="swimlane;childLayout=stackLayout;horizontal=1;startSize=50;horizontalStack=0;rounded=1;fontSize=14;fontStyle=0;strokeWidth=2;resizeParent=0;resizeLast=1;shadow=0;dashed=0;align=center;arcSize=4;whiteSpace=wrap;html=1;" vertex="1" parent="1">
          <mxGeometry x="30" y="616" width="160" height="120" as="geometry" />
        </mxCell>
        <mxCell id="Xc801w4YaEWtKi9-rcJZ-39" value="TeachewrID &amp;lt;PI&amp;gt;" style="align=left;strokeColor=none;fillColor=none;spacingLeft=4;spacingRight=4;fontSize=12;verticalAlign=top;resizable=0;rotatable=0;part=1;html=1;whiteSpace=wrap;" vertex="1" parent="Xc801w4YaEWtKi9-rcJZ-38">
          <mxGeometry y="50" width="160" height="70" as="geometry" />
        </mxCell>
        <mxCell id="Xc801w4YaEWtKi9-rcJZ-40" value="Paper" style="swimlane;childLayout=stackLayout;horizontal=1;startSize=50;horizontalStack=0;rounded=1;fontSize=14;fontStyle=0;strokeWidth=2;resizeParent=0;resizeLast=1;shadow=0;dashed=0;align=center;arcSize=4;whiteSpace=wrap;html=1;" vertex="1" parent="1">
          <mxGeometry x="460" y="616" width="160" height="120" as="geometry" />
        </mxCell>
        <mxCell id="Xc801w4YaEWtKi9-rcJZ-41" value="PaperID &amp;lt;PI&amp;gt;" style="align=left;strokeColor=none;fillColor=none;spacingLeft=4;spacingRight=4;fontSize=12;verticalAlign=top;resizable=0;rotatable=0;part=1;html=1;whiteSpace=wrap;" vertex="1" parent="Xc801w4YaEWtKi9-rcJZ-40">
          <mxGeometry y="50" width="160" height="70" as="geometry" />
        </mxCell>
        <mxCell id="Xc801w4YaEWtKi9-rcJZ-42" style="edgeStyle=none;curved=1;rounded=0;orthogonalLoop=1;jettySize=auto;html=1;fontSize=12;startSize=8;endSize=8;" edge="1" parent="Xc801w4YaEWtKi9-rcJZ-40" source="Xc801w4YaEWtKi9-rcJZ-41" target="Xc801w4YaEWtKi9-rcJZ-40">
          <mxGeometry relative="1" as="geometry" />
        </mxCell>
        <mxCell id="Xc801w4YaEWtKi9-rcJZ-43" style="edgeStyle=none;curved=1;rounded=0;orthogonalLoop=1;jettySize=auto;html=1;entryX=0;entryY=0;entryDx=0;entryDy=0;fontSize=12;startSize=8;endSize=8;startArrow=ERmandOne;startFill=0;endArrow=ERzeroToMany;endFill=0;" edge="1" parent="1" target="Xc801w4YaEWtKi9-rcJZ-41">
          <mxGeometry relative="1" as="geometry">
            <mxPoint x="190" y="666" as="sourcePoint" />
            <mxPoint x="460" y="666" as="targetPoint" />
          </mxGeometry>
        </mxCell>
        <mxCell id="Xc801w4YaEWtKi9-rcJZ-44" value="marks" style="edgeLabel;html=1;align=center;verticalAlign=middle;resizable=0;points=[];fontSize=12;" vertex="1" connectable="0" parent="Xc801w4YaEWtKi9-rcJZ-43">
          <mxGeometry x="0.0148" y="-1" relative="1" as="geometry">
            <mxPoint as="offset" />
          </mxGeometry>
        </mxCell>
        <mxCell id="Xc801w4YaEWtKi9-rcJZ-45" value="Player" style="swimlane;childLayout=stackLayout;horizontal=1;startSize=50;horizontalStack=0;rounded=1;fontSize=14;fontStyle=0;strokeWidth=2;resizeParent=0;resizeLast=1;shadow=0;dashed=0;align=center;arcSize=4;whiteSpace=wrap;html=1;" vertex="1" parent="1">
          <mxGeometry x="30" y="776" width="160" height="120" as="geometry" />
        </mxCell>
        <mxCell id="Xc801w4YaEWtKi9-rcJZ-46" value="PlayerID &amp;lt;PI&amp;gt;" style="align=left;strokeColor=none;fillColor=none;spacingLeft=4;spacingRight=4;fontSize=12;verticalAlign=top;resizable=0;rotatable=0;part=1;html=1;whiteSpace=wrap;" vertex="1" parent="Xc801w4YaEWtKi9-rcJZ-45">
          <mxGeometry y="50" width="160" height="70" as="geometry" />
        </mxCell>
        <mxCell id="Xc801w4YaEWtKi9-rcJZ-47" value="Team" style="swimlane;childLayout=stackLayout;horizontal=1;startSize=50;horizontalStack=0;rounded=1;fontSize=14;fontStyle=0;strokeWidth=2;resizeParent=0;resizeLast=1;shadow=0;dashed=0;align=center;arcSize=4;whiteSpace=wrap;html=1;" vertex="1" parent="1">
          <mxGeometry x="460" y="776" width="160" height="120" as="geometry" />
        </mxCell>
        <mxCell id="Xc801w4YaEWtKi9-rcJZ-48" value="TeamID &amp;lt;PI&amp;gt;" style="align=left;strokeColor=none;fillColor=none;spacingLeft=4;spacingRight=4;fontSize=12;verticalAlign=top;resizable=0;rotatable=0;part=1;html=1;whiteSpace=wrap;" vertex="1" parent="Xc801w4YaEWtKi9-rcJZ-47">
          <mxGeometry y="50" width="160" height="70" as="geometry" />
        </mxCell>
        <mxCell id="Xc801w4YaEWtKi9-rcJZ-49" style="edgeStyle=none;curved=1;rounded=0;orthogonalLoop=1;jettySize=auto;html=1;fontSize=12;startSize=8;endSize=8;" edge="1" parent="Xc801w4YaEWtKi9-rcJZ-47" source="Xc801w4YaEWtKi9-rcJZ-48" target="Xc801w4YaEWtKi9-rcJZ-47">
          <mxGeometry relative="1" as="geometry" />
        </mxCell>
        <mxCell id="Xc801w4YaEWtKi9-rcJZ-50" style="edgeStyle=none;curved=1;rounded=0;orthogonalLoop=1;jettySize=auto;html=1;entryX=0;entryY=0;entryDx=0;entryDy=0;fontSize=12;startSize=8;endSize=8;startArrow=ERzeroToMany;startFill=0;endArrow=ERzeroToMany;endFill=0;" edge="1" parent="1" target="Xc801w4YaEWtKi9-rcJZ-48">
          <mxGeometry relative="1" as="geometry">
            <mxPoint x="190" y="826" as="sourcePoint" />
            <mxPoint x="460" y="826" as="targetPoint" />
          </mxGeometry>
        </mxCell>
        <mxCell id="Xc801w4YaEWtKi9-rcJZ-51" value="plays" style="edgeLabel;html=1;align=center;verticalAlign=middle;resizable=0;points=[];fontSize=12;" vertex="1" connectable="0" parent="Xc801w4YaEWtKi9-rcJZ-50">
          <mxGeometry x="0.0148" y="-1" relative="1" as="geometry">
            <mxPoint as="offset" />
          </mxGeometry>
        </mxCell>
      </root>
    </mxGraphModel>
  </diagram>
  <diagram id="8TGpUJFxCJaHSkZn9z-A" name="Page-2">
    <mxGraphModel dx="3176" dy="2073" grid="1" gridSize="10" guides="1" tooltips="1" connect="1" arrows="1" fold="1" page="0" pageScale="1" pageWidth="850" pageHeight="1100" math="0" shadow="0">
      <root>
        <mxCell id="0" />
        <mxCell id="1" parent="0" />
        <mxCell id="flccoF1PaOZVYJzNUx7W-8" style="edgeStyle=orthogonalEdgeStyle;rounded=0;orthogonalLoop=1;jettySize=auto;html=1;endArrow=none;endFill=0;" edge="1" parent="1" source="3GbFFvfoC3xt1Sqf12QE-1" target="flccoF1PaOZVYJzNUx7W-6">
          <mxGeometry relative="1" as="geometry">
            <Array as="points">
              <mxPoint x="-1290" y="-790" />
            </Array>
          </mxGeometry>
        </mxCell>
        <mxCell id="3GbFFvfoC3xt1Sqf12QE-1" value="Undergrad" style="swimlane;childLayout=stackLayout;horizontal=1;startSize=50;horizontalStack=0;rounded=1;fontSize=14;fontStyle=0;strokeWidth=2;resizeParent=0;resizeLast=1;shadow=0;dashed=0;align=center;arcSize=4;whiteSpace=wrap;html=1;" parent="1" vertex="1">
          <mxGeometry x="-1370" y="-730" width="160" height="120" as="geometry" />
        </mxCell>
        <mxCell id="3GbFFvfoC3xt1Sqf12QE-2" value="&lt;div&gt;StudentMajor&lt;/div&gt;" style="align=left;strokeColor=none;fillColor=none;spacingLeft=4;spacingRight=4;fontSize=12;verticalAlign=top;resizable=0;rotatable=0;part=1;html=1;whiteSpace=wrap;" parent="3GbFFvfoC3xt1Sqf12QE-1" vertex="1">
          <mxGeometry y="50" width="160" height="70" as="geometry" />
        </mxCell>
        <mxCell id="3rUDM0hxEPO33cNUYivA-1" value="Unit" style="swimlane;childLayout=stackLayout;horizontal=1;startSize=50;horizontalStack=0;rounded=1;fontSize=14;fontStyle=0;strokeWidth=2;resizeParent=0;resizeLast=1;shadow=0;dashed=0;align=center;arcSize=4;whiteSpace=wrap;html=1;" parent="1" vertex="1">
          <mxGeometry x="-1030" y="-730" width="160" height="120" as="geometry" />
        </mxCell>
        <mxCell id="3rUDM0hxEPO33cNUYivA-2" value="UnitID &amp;lt;PI&amp;gt;&lt;div&gt;UnitName&lt;/div&gt;&lt;div&gt;UnitDescription&lt;/div&gt;&lt;div&gt;CreditPoints&lt;/div&gt;" style="align=left;strokeColor=none;fillColor=none;spacingLeft=4;spacingRight=4;fontSize=12;verticalAlign=top;resizable=0;rotatable=0;part=1;html=1;whiteSpace=wrap;" parent="3rUDM0hxEPO33cNUYivA-1" vertex="1">
          <mxGeometry y="50" width="160" height="70" as="geometry" />
        </mxCell>
        <mxCell id="u3VYJQ0W4rCcnem0_WpB-1" value="Thesis" style="swimlane;childLayout=stackLayout;horizontal=1;startSize=50;horizontalStack=0;rounded=1;fontSize=14;fontStyle=0;strokeWidth=2;resizeParent=0;resizeLast=1;shadow=0;dashed=0;align=center;arcSize=4;whiteSpace=wrap;html=1;" parent="1" vertex="1">
          <mxGeometry x="-220" y="-720" width="160" height="120" as="geometry" />
        </mxCell>
        <mxCell id="u3VYJQ0W4rCcnem0_WpB-2" value="ThesisID &amp;lt;PI&amp;gt;&lt;div&gt;Title&lt;/div&gt;&lt;div&gt;Type&lt;/div&gt;&lt;div&gt;&lt;br&gt;&lt;/div&gt;" style="align=left;strokeColor=none;fillColor=none;spacingLeft=4;spacingRight=4;fontSize=12;verticalAlign=top;resizable=0;rotatable=0;part=1;html=1;whiteSpace=wrap;" parent="u3VYJQ0W4rCcnem0_WpB-1" vertex="1">
          <mxGeometry y="50" width="160" height="70" as="geometry" />
        </mxCell>
        <mxCell id="u3VYJQ0W4rCcnem0_WpB-4" value="Faculty" style="swimlane;childLayout=stackLayout;horizontal=1;startSize=50;horizontalStack=0;rounded=1;fontSize=14;fontStyle=0;strokeWidth=2;resizeParent=0;resizeLast=1;shadow=0;dashed=0;align=center;arcSize=4;whiteSpace=wrap;html=1;" parent="1" vertex="1">
          <mxGeometry x="-1360" y="-400" width="160" height="120" as="geometry" />
        </mxCell>
        <mxCell id="u3VYJQ0W4rCcnem0_WpB-5" value="FacultyID &amp;lt;PI&amp;gt;&lt;div&gt;FacultyName&lt;/div&gt;&lt;div&gt;FacultyDescription&lt;/div&gt;&lt;div&gt;FacultyAddress&lt;/div&gt;" style="align=left;strokeColor=none;fillColor=none;spacingLeft=4;spacingRight=4;fontSize=12;verticalAlign=top;resizable=0;rotatable=0;part=1;html=1;whiteSpace=wrap;" parent="u3VYJQ0W4rCcnem0_WpB-4" vertex="1">
          <mxGeometry y="50" width="160" height="70" as="geometry" />
        </mxCell>
        <mxCell id="flccoF1PaOZVYJzNUx7W-9" style="edgeStyle=orthogonalEdgeStyle;rounded=0;orthogonalLoop=1;jettySize=auto;html=1;endArrow=none;endFill=0;" edge="1" parent="1" source="u3VYJQ0W4rCcnem0_WpB-6" target="flccoF1PaOZVYJzNUx7W-6">
          <mxGeometry relative="1" as="geometry">
            <Array as="points">
              <mxPoint x="-500" y="-790" />
            </Array>
          </mxGeometry>
        </mxCell>
        <mxCell id="u3VYJQ0W4rCcnem0_WpB-6" value="Research" style="swimlane;childLayout=stackLayout;horizontal=1;startSize=50;horizontalStack=0;rounded=1;fontSize=14;fontStyle=0;strokeWidth=2;resizeParent=0;resizeLast=1;shadow=0;dashed=0;align=center;arcSize=4;whiteSpace=wrap;html=1;" parent="1" vertex="1">
          <mxGeometry x="-580" y="-740" width="160" height="120" as="geometry" />
        </mxCell>
        <mxCell id="u3VYJQ0W4rCcnem0_WpB-7" value="&lt;div&gt;&lt;span style=&quot;background-color: transparent; color: light-dark(rgb(0, 0, 0), rgb(255, 255, 255));&quot;&gt;ResearchArea&lt;/span&gt;&lt;/div&gt;" style="align=left;strokeColor=none;fillColor=none;spacingLeft=4;spacingRight=4;fontSize=12;verticalAlign=top;resizable=0;rotatable=0;part=1;html=1;whiteSpace=wrap;" parent="u3VYJQ0W4rCcnem0_WpB-6" vertex="1">
          <mxGeometry y="50" width="160" height="70" as="geometry" />
        </mxCell>
        <mxCell id="u3VYJQ0W4rCcnem0_WpB-25" style="edgeStyle=none;curved=1;rounded=0;orthogonalLoop=1;jettySize=auto;html=1;entryX=0.5;entryY=1;entryDx=0;entryDy=0;fontSize=12;startSize=8;endSize=8;endArrow=ERzeroToMany;endFill=0;startArrow=ERmandOne;startFill=0;" parent="1" source="u3VYJQ0W4rCcnem0_WpB-8" target="3rUDM0hxEPO33cNUYivA-2" edge="1">
          <mxGeometry relative="1" as="geometry" />
        </mxCell>
        <mxCell id="flccoF1PaOZVYJzNUx7W-22" value="offer" style="edgeLabel;html=1;align=center;verticalAlign=middle;resizable=0;points=[];" vertex="1" connectable="0" parent="u3VYJQ0W4rCcnem0_WpB-25">
          <mxGeometry x="-0.3953" y="3" relative="1" as="geometry">
            <mxPoint as="offset" />
          </mxGeometry>
        </mxCell>
        <mxCell id="u3VYJQ0W4rCcnem0_WpB-8" value="Department(WE)" style="swimlane;childLayout=stackLayout;horizontal=1;startSize=50;horizontalStack=0;rounded=1;fontSize=14;fontStyle=0;strokeWidth=2;resizeParent=0;resizeLast=1;shadow=0;dashed=0;align=center;arcSize=4;whiteSpace=wrap;html=1;fillColor=#ffe6cc;strokeColor=#d79b00;" parent="1" vertex="1">
          <mxGeometry x="-1030" y="-420" width="160" height="120" as="geometry" />
        </mxCell>
        <mxCell id="u3VYJQ0W4rCcnem0_WpB-9" value="DepartmentID&amp;nbsp;&lt;div&gt;DepartmentName&lt;/div&gt;&lt;div&gt;&lt;span style=&quot;color: rgba(0, 0, 0, 0); font-family: monospace; font-size: 0px; text-wrap-mode: nowrap;&quot;&gt;%3CmxGraphModel%3E%3Croot%3E%3CmxCell%20id%3D%220%22%2F%3E%3CmxCell%20id%3D%221%22%20parent%3D%220%22%2F%3E%3CmxCell%20id%3D%222%22%20value%3D%22Student%22%20style%3D%22swimlane%3BchildLayout%3DstackLayout%3Bhorizontal%3D1%3BstartSize%3D50%3BhorizontalStack%3D0%3Brounded%3D1%3BfontSize%3D14%3BfontStyle%3D0%3BstrokeWidth%3D2%3BresizeParent%3D0%3BresizeLast%3D1%3Bshadow%3D0%3Bdashed%3D0%3Balign%3Dcenter%3BarcSize%3D4%3BwhiteSpace%3Dwrap%3Bhtml%3D1%3B%22%20vertex%3D%221%22%20parent%3D%221%22%3E%3CmxGeometry%20x%3D%22-1030%22%20y%3D%22-570%22%20width%3D%22160%22%20height%3D%22120%22%20as%3D%22geometry%22%2F%3E%3C%2FmxCell%3E%3CmxCell%20id%3D%223%22%20value%3D%22StudentID%20%26amp%3Blt%3BPI%26amp%3Bgt%3B%26lt%3Bdiv%26gt%3BName%26lt%3B%2Fdiv%26gt%3B%26lt%3Bdiv%26gt%3BAddress%26lt%3B%2Fdiv%26gt%3B%26lt%3Bdiv%26gt%3BType%26lt%3B%2Fdiv%26gt%3B%22%20style%3D%22align%3Dleft%3BstrokeColor%3Dnone%3BfillColor%3Dnone%3BspacingLeft%3D4%3BspacingRight%3D4%3BfontSize%3D12%3BverticalAlign%3Dtop%3Bresizable%3D0%3Brotatable%3D0%3Bpart%3D1%3Bhtml%3D1%3BwhiteSpace%3Dwrap%3B%22%20vertex%3D%221%22%20parent%3D%222%22%3E%3CmxGeometry%20y%3D%2250%22%20width%3D%22160%22%20height%3D%2270%22%20as%3D%22geometry%22%2F%3E%3C%2FmxCell%3E%3C%2Froot%3E%3C%2FmxGraphModel%3E&lt;/span&gt;&lt;span style=&quot;background-color: transparent; color: light-dark(rgb(0, 0, 0), rgb(255, 255, 255));&quot;&gt;DepartmentAdress&lt;/span&gt;&lt;/div&gt;&lt;div&gt;&lt;span style=&quot;background-color: transparent; color: light-dark(rgb(0, 0, 0), rgb(255, 255, 255));&quot;&gt;&lt;br&gt;&lt;/span&gt;&lt;/div&gt;" style="align=left;strokeColor=none;fillColor=none;spacingLeft=4;spacingRight=4;fontSize=12;verticalAlign=top;resizable=0;rotatable=0;part=1;html=1;whiteSpace=wrap;" parent="u3VYJQ0W4rCcnem0_WpB-8" vertex="1">
          <mxGeometry y="50" width="160" height="70" as="geometry" />
        </mxCell>
        <mxCell id="u3VYJQ0W4rCcnem0_WpB-10" value="Staff" style="swimlane;childLayout=stackLayout;horizontal=1;startSize=50;horizontalStack=0;rounded=1;fontSize=14;fontStyle=0;strokeWidth=2;resizeParent=0;resizeLast=1;shadow=0;dashed=0;align=center;arcSize=4;whiteSpace=wrap;html=1;" parent="1" vertex="1">
          <mxGeometry x="-460" y="-460" width="160" height="120" as="geometry" />
        </mxCell>
        <mxCell id="u3VYJQ0W4rCcnem0_WpB-11" value="StaffID &amp;lt;PI&amp;gt;&lt;div&gt;StaffName&lt;/div&gt;&lt;div&gt;StaffDesignation&lt;/div&gt;&lt;div&gt;StaffAddress&lt;/div&gt;" style="align=left;strokeColor=none;fillColor=none;spacingLeft=4;spacingRight=4;fontSize=12;verticalAlign=top;resizable=0;rotatable=0;part=1;html=1;whiteSpace=wrap;" parent="u3VYJQ0W4rCcnem0_WpB-10" vertex="1">
          <mxGeometry y="50" width="160" height="70" as="geometry" />
        </mxCell>
        <mxCell id="u3VYJQ0W4rCcnem0_WpB-13" value="Classroom" style="swimlane;childLayout=stackLayout;horizontal=1;startSize=50;horizontalStack=0;rounded=1;fontSize=14;fontStyle=0;strokeWidth=2;resizeParent=0;resizeLast=1;shadow=0;dashed=0;align=center;arcSize=4;whiteSpace=wrap;html=1;" parent="1" vertex="1">
          <mxGeometry x="-750" y="-220" width="160" height="120" as="geometry" />
        </mxCell>
        <mxCell id="u3VYJQ0W4rCcnem0_WpB-14" value="ClassID &amp;lt;PI&amp;gt;&lt;div&gt;BiuldingName&lt;/div&gt;&lt;div&gt;RoomNumber&lt;/div&gt;" style="align=left;strokeColor=none;fillColor=none;spacingLeft=4;spacingRight=4;fontSize=12;verticalAlign=top;resizable=0;rotatable=0;part=1;html=1;whiteSpace=wrap;" parent="u3VYJQ0W4rCcnem0_WpB-13" vertex="1">
          <mxGeometry y="50" width="160" height="70" as="geometry" />
        </mxCell>
        <mxCell id="u3VYJQ0W4rCcnem0_WpB-16" style="edgeStyle=none;curved=1;rounded=0;orthogonalLoop=1;jettySize=auto;html=1;fontSize=12;startSize=8;endSize=8;endArrow=ERzeroToMany;endFill=0;startArrow=ERzeroToMany;startFill=0;exitX=0;exitY=0;exitDx=0;exitDy=0;" parent="1" source="flccoF1PaOZVYJzNUx7W-2" target="3rUDM0hxEPO33cNUYivA-1" edge="1">
          <mxGeometry relative="1" as="geometry">
            <Array as="points">
              <mxPoint x="-1000" y="-920" />
            </Array>
          </mxGeometry>
        </mxCell>
        <mxCell id="flccoF1PaOZVYJzNUx7W-21" value="enroll" style="edgeLabel;html=1;align=center;verticalAlign=middle;resizable=0;points=[];" vertex="1" connectable="0" parent="u3VYJQ0W4rCcnem0_WpB-16">
          <mxGeometry x="0.2704" y="16" relative="1" as="geometry">
            <mxPoint as="offset" />
          </mxGeometry>
        </mxCell>
        <mxCell id="u3VYJQ0W4rCcnem0_WpB-17" style="edgeStyle=none;curved=1;rounded=0;orthogonalLoop=1;jettySize=auto;html=1;fontSize=12;startSize=8;endSize=8;endArrow=ERzeroToOne;endFill=0;startArrow=ERmandOne;startFill=0;" parent="1" source="u3VYJQ0W4rCcnem0_WpB-7" target="u3VYJQ0W4rCcnem0_WpB-1" edge="1">
          <mxGeometry relative="1" as="geometry" />
        </mxCell>
        <mxCell id="flccoF1PaOZVYJzNUx7W-24" value="select" style="edgeLabel;html=1;align=center;verticalAlign=middle;resizable=0;points=[];" vertex="1" connectable="0" parent="u3VYJQ0W4rCcnem0_WpB-17">
          <mxGeometry x="-0.3042" y="1" relative="1" as="geometry">
            <mxPoint as="offset" />
          </mxGeometry>
        </mxCell>
        <mxCell id="u3VYJQ0W4rCcnem0_WpB-18" style="edgeStyle=none;curved=1;rounded=0;orthogonalLoop=1;jettySize=auto;html=1;fontSize=12;startSize=8;endSize=8;entryX=0;entryY=0.25;entryDx=0;entryDy=0;endArrow=ERzeroToMany;endFill=0;startArrow=ERmandOne;startFill=0;exitX=1;exitY=0;exitDx=0;exitDy=0;" parent="1" source="u3VYJQ0W4rCcnem0_WpB-5" target="u3VYJQ0W4rCcnem0_WpB-9" edge="1">
          <mxGeometry relative="1" as="geometry" />
        </mxCell>
        <mxCell id="flccoF1PaOZVYJzNUx7W-23" value="manage" style="edgeLabel;html=1;align=center;verticalAlign=middle;resizable=0;points=[];" vertex="1" connectable="0" parent="u3VYJQ0W4rCcnem0_WpB-18">
          <mxGeometry x="-0.3122" y="1" relative="1" as="geometry">
            <mxPoint as="offset" />
          </mxGeometry>
        </mxCell>
        <mxCell id="u3VYJQ0W4rCcnem0_WpB-30" style="edgeStyle=none;curved=1;rounded=0;orthogonalLoop=1;jettySize=auto;html=1;fontSize=12;startSize=8;endSize=8;endArrow=ERzeroToMany;endFill=0;startArrow=ERmandOne;startFill=0;exitX=0;exitY=0.25;exitDx=0;exitDy=0;entryX=1;entryY=0.25;entryDx=0;entryDy=0;" parent="1" source="u3VYJQ0W4rCcnem0_WpB-11" target="u3VYJQ0W4rCcnem0_WpB-29" edge="1">
          <mxGeometry relative="1" as="geometry">
            <mxPoint x="-470" y="-450" as="targetPoint" />
          </mxGeometry>
        </mxCell>
        <mxCell id="u3VYJQ0W4rCcnem0_WpB-28" value="Lession(AE)" style="swimlane;childLayout=stackLayout;horizontal=1;startSize=50;horizontalStack=0;rounded=1;fontSize=14;fontStyle=0;strokeWidth=2;resizeParent=0;resizeLast=1;shadow=0;dashed=0;align=center;arcSize=4;whiteSpace=wrap;html=1;fillColor=#d5e8d4;strokeColor=#82b366;" parent="1" vertex="1">
          <mxGeometry x="-750" y="-460" width="160" height="120" as="geometry" />
        </mxCell>
        <mxCell id="u3VYJQ0W4rCcnem0_WpB-29" value="Day&lt;div&gt;Time&lt;/div&gt;" style="align=left;strokeColor=none;fillColor=none;spacingLeft=4;spacingRight=4;fontSize=12;verticalAlign=top;resizable=0;rotatable=0;part=1;html=1;whiteSpace=wrap;" parent="u3VYJQ0W4rCcnem0_WpB-28" vertex="1">
          <mxGeometry y="50" width="160" height="70" as="geometry" />
        </mxCell>
        <mxCell id="u3VYJQ0W4rCcnem0_WpB-31" style="edgeStyle=none;curved=1;rounded=0;orthogonalLoop=1;jettySize=auto;html=1;fontSize=12;startSize=8;endSize=8;startArrow=ERmandOne;startFill=0;endArrow=ERzeroToMany;endFill=0;" parent="1" source="u3VYJQ0W4rCcnem0_WpB-13" target="u3VYJQ0W4rCcnem0_WpB-29" edge="1">
          <mxGeometry relative="1" as="geometry">
            <mxPoint x="-360" y="-230" as="targetPoint" />
            <mxPoint x="-720" y="-300" as="sourcePoint" />
          </mxGeometry>
        </mxCell>
        <mxCell id="u3VYJQ0W4rCcnem0_WpB-32" style="edgeStyle=none;curved=1;rounded=0;orthogonalLoop=1;jettySize=auto;html=1;entryX=0.5;entryY=0;entryDx=0;entryDy=0;fontSize=12;startSize=8;endSize=8;startArrow=ERmandOne;startFill=0;endArrow=ERzeroToMany;endFill=0;" parent="1" source="3rUDM0hxEPO33cNUYivA-2" target="u3VYJQ0W4rCcnem0_WpB-28" edge="1">
          <mxGeometry relative="1" as="geometry" />
        </mxCell>
        <mxCell id="u3VYJQ0W4rCcnem0_WpB-33" value="&lt;h1 style=&quot;margin-top: 0px;&quot;&gt;&lt;span style=&quot;background-color: transparent; color: light-dark(rgb(0, 0, 0), rgb(255, 255, 255));&quot;&gt;Assossiative Entity (AE)&lt;/span&gt;&lt;/h1&gt;&lt;h1 style=&quot;margin-top: 0px;&quot;&gt;&lt;span style=&quot;background-color: transparent; color: light-dark(rgb(0, 0, 0), rgb(255, 255, 255)); font-size: 12px; font-weight: normal;&quot;&gt;They will have the same relationship as if they were a Weak Entity (WE), meaning, that the strong sides can have multiple entries but one the other side is an 1: mandatory.&lt;/span&gt;&lt;/h1&gt;" style="text;html=1;whiteSpace=wrap;overflow=hidden;rounded=0;" parent="1" vertex="1">
          <mxGeometry x="-510" y="-290" width="290" height="170" as="geometry" />
        </mxCell>
        <mxCell id="flccoF1PaOZVYJzNUx7W-1" value="Student" style="swimlane;childLayout=stackLayout;horizontal=1;startSize=50;horizontalStack=0;rounded=1;fontSize=14;fontStyle=0;strokeWidth=2;resizeParent=0;resizeLast=1;shadow=0;dashed=0;align=center;arcSize=4;whiteSpace=wrap;html=1;" vertex="1" parent="1">
          <mxGeometry x="-870" y="-990" width="160" height="120" as="geometry" />
        </mxCell>
        <mxCell id="flccoF1PaOZVYJzNUx7W-2" value="StudentID &amp;lt;PI&amp;gt;&lt;div&gt;StudentName&lt;/div&gt;&lt;div&gt;StudentAddress&lt;/div&gt;" style="align=left;strokeColor=none;fillColor=none;spacingLeft=4;spacingRight=4;fontSize=12;verticalAlign=top;resizable=0;rotatable=0;part=1;html=1;whiteSpace=wrap;" vertex="1" parent="flccoF1PaOZVYJzNUx7W-1">
          <mxGeometry y="50" width="160" height="70" as="geometry" />
        </mxCell>
        <mxCell id="flccoF1PaOZVYJzNUx7W-6" value="" style="shape=or;whiteSpace=wrap;html=1;rotation=-90;" vertex="1" parent="1">
          <mxGeometry x="-815" y="-834" width="40" height="50" as="geometry" />
        </mxCell>
        <mxCell id="flccoF1PaOZVYJzNUx7W-7" value="" style="shape=flexArrow;endArrow=classic;html=1;rounded=0;width=10;endSize=2.7222222222222223;" edge="1" parent="1">
          <mxGeometry width="50" height="50" relative="1" as="geometry">
            <mxPoint x="-796" y="-830" as="sourcePoint" />
            <mxPoint x="-795.56" y="-870" as="targetPoint" />
          </mxGeometry>
        </mxCell>
        <mxCell id="flccoF1PaOZVYJzNUx7W-11" value="Supertype" style="text;html=1;align=center;verticalAlign=middle;whiteSpace=wrap;rounded=0;" vertex="1" parent="1">
          <mxGeometry x="-816" y="-1030" width="60" height="30" as="geometry" />
        </mxCell>
        <mxCell id="flccoF1PaOZVYJzNUx7W-12" value="Subtype" style="text;html=1;align=center;verticalAlign=middle;whiteSpace=wrap;rounded=0;" vertex="1" parent="1">
          <mxGeometry x="-1270" y="-760" width="60" height="30" as="geometry" />
        </mxCell>
        <mxCell id="flccoF1PaOZVYJzNUx7W-13" value="Subtype" style="text;html=1;align=center;verticalAlign=middle;whiteSpace=wrap;rounded=0;" vertex="1" parent="1">
          <mxGeometry x="-560" y="-770" width="60" height="30" as="geometry" />
        </mxCell>
        <mxCell id="flccoF1PaOZVYJzNUx7W-15" value="d" style="text;html=1;align=center;verticalAlign=middle;whiteSpace=wrap;rounded=0;" vertex="1" parent="1">
          <mxGeometry x="-825" y="-824" width="60" height="30" as="geometry" />
        </mxCell>
        <mxCell id="flccoF1PaOZVYJzNUx7W-16" value="Supervision" style="swimlane;childLayout=stackLayout;horizontal=1;startSize=50;horizontalStack=0;rounded=1;fontSize=14;fontStyle=0;strokeWidth=2;resizeParent=0;resizeLast=1;shadow=0;dashed=0;align=center;arcSize=4;whiteSpace=wrap;html=1;fillColor=#d5e8d4;strokeColor=#82b366;" vertex="1" parent="1">
          <mxGeometry x="-230" y="-460" width="160" height="120" as="geometry" />
        </mxCell>
        <mxCell id="flccoF1PaOZVYJzNUx7W-17" value="&lt;span style=&quot;text-align: center;&quot;&gt;StartDate&lt;/span&gt;&lt;div style=&quot;text-align: center;&quot;&gt;EndDate&lt;/div&gt;" style="align=left;strokeColor=none;fillColor=none;spacingLeft=4;spacingRight=4;fontSize=12;verticalAlign=top;resizable=0;rotatable=0;part=1;html=1;whiteSpace=wrap;" vertex="1" parent="flccoF1PaOZVYJzNUx7W-16">
          <mxGeometry y="50" width="160" height="70" as="geometry" />
        </mxCell>
        <mxCell id="flccoF1PaOZVYJzNUx7W-18" style="edgeStyle=none;curved=1;rounded=0;orthogonalLoop=1;jettySize=auto;html=1;exitX=1;exitY=0.25;exitDx=0;exitDy=0;entryX=0;entryY=0.25;entryDx=0;entryDy=0;fontSize=12;startSize=8;endSize=8;startArrow=ERmandOne;startFill=0;endArrow=ERzeroToMany;endFill=0;" edge="1" parent="1" source="u3VYJQ0W4rCcnem0_WpB-11" target="flccoF1PaOZVYJzNUx7W-17">
          <mxGeometry relative="1" as="geometry">
            <mxPoint x="-140" y="-490" as="sourcePoint" />
            <mxPoint x="-83" y="-362" as="targetPoint" />
          </mxGeometry>
        </mxCell>
        <mxCell id="flccoF1PaOZVYJzNUx7W-20" style="edgeStyle=none;curved=1;rounded=0;orthogonalLoop=1;jettySize=auto;html=1;exitX=0.5;exitY=1;exitDx=0;exitDy=0;entryX=0.56;entryY=0.012;entryDx=0;entryDy=0;fontSize=12;startSize=8;endSize=8;startArrow=ERmandOne;startFill=0;endArrow=ERzeroToMany;endFill=0;entryPerimeter=0;" edge="1" parent="1" source="u3VYJQ0W4rCcnem0_WpB-2" target="flccoF1PaOZVYJzNUx7W-16">
          <mxGeometry relative="1" as="geometry">
            <mxPoint x="-100" y="-530" as="sourcePoint" />
            <mxPoint x="-30" y="-530" as="targetPoint" />
          </mxGeometry>
        </mxCell>
      </root>
    </mxGraphModel>
  </diagram>
</mxfile>
